{"title":"The Inbetweeners 2 2014 HDRip x-264-KingStoner","uid":10872616,"size":1292015654,"categoryP":"video","categoryS":"movies","magnet":"?xt=urn:btih:b66b607ba92ca15822c106d1cc326fb90df07a8f&amp;dn=The+Inbetweeners+2+2014+HDRip+x-264-KingStoner&amp;tr=udp%3A%2F%2Ftracker.openbittorrent.com%3A80&amp;tr=udp%3A%2F%2Fopen.demonii.com%3A1337&amp;tr=udp%3A%2F%2Ftracker.coppersurfer.tk%3A6969&amp;tr=udp%3A%2F%2Fexodus.desync.com%3A6969","seeders":10,"leechers":0,"uploader":".BONE.","files":6,"time":1408979334,"description":"Format : MPEG-4\nFormat profile : Base Media\nCodec ID : isom\nFile size : 1.20 GiB\nDuration : 1h 30mn\nOverall bit rate : 1 913 Kbps\nWriting application : Lavf54.63.104 &lt;a href=&quot;\nhttp://www.imdb.com/title/tt3097204/&quot; rel=&quot;nofollow&quot; target=&quot;_NEW&quot;&gt;\nhttp://www.imdb.com/title/tt3097204/&lt;/a&gt;\nVideo\nID : 1\nFormat : AVC\nFormat/Info : Advanced Video Codec\nFormat profile : &lt;a class=&quot;__cf_email__&quot; href=&quot;/cdn-cgi/l/email-protection&quot; data-cfemail=&quot;6c24050b042c205f425c&quot;&gt;[email&amp;#160;protected]&lt;/a&gt;&lt;script cf-hash='f9e31' type=&quot;text/javascript&quot;&gt;\n/* &lt;![CDATA[ */!function(){try{var t=&quot;currentScript&quot;in document?document.currentScript:function(){for(var t=document.getElementsByTagName(&quot;script&quot;),e=t.length;e--;)if(t[e].getAttribute(&quot;cf-hash&quot;))return t[e]}();if(t&amp;&amp;t.previousSibling){var e,r,n,i,c=t.previousSibling,a=c.getAttribute(&quot;data-cfemail&quot;);if(a){for(e=&quot;&quot;,r=parseInt(a.substr(0,2),16),n=2;a.length-n;n+=2)i=parseInt(a.substr(n,2),16)^r,e+=String.fromCharCode(i);e=document.createTextNode(e),c.parentNode.replaceChild(e,c)}}}catch(u){}}();/* ]]&gt; */&lt;/script&gt;\nFormat settings, CABAC : Yes\nFormat settings, ReFrames : 4 frames\nCodec ID : avc1\nCodec ID/Info : Advanced Video Coding\nDuration : 1h 30mn\nBit rate : 1 800 Kbps\nWidth : 720 pixels\nHeight : 404 pixels\nDisplay aspect ratio : 16:9\nFrame rate mode : Constant\nFrame rate : 25.000 fps\nColor space : YUV\nChroma subsampling : 4:2:0\nBit depth : 8 bits\nScan type : Progressive\nBits/(Pixel*Frame) : 0.248\nStream size : 1.12 GiB (93%)\nWriting library : x264 core 123 r2189 35cf912\nAudio\nID : 2\nFormat : AAC\nFormat/Info : Advanced Audio Codec\nFormat profile : LC\nCodec ID : 40\nDuration : 1h 30mn\nBit rate mode : Constant\nBit rate : 128 Kbps\nChannel(s) : 2 channels\nChannel positions : Front: L R\nSampling rate : 48.0 KHz\nCompression mode : Lossy\nStream size : 82.4 MiB (7%)\nLanguage : unk\n &lt;a href=&quot;\nhttp://imgchicken.com/images/51444577769103671919.jpg&quot; rel=&quot;nofollow&quot; target=&quot;_NEW&quot;&gt;\nhttp://imgchicken.com/images/51444577769103671919.jpg&lt;/a&gt; &lt;a href=&quot;\nhttp://imgchicken.com/images/05051433734813247700.jpg&quot; rel=&quot;nofollow&quot; target=&quot;_NEW&quot;&gt;\nhttp://imgchicken.com/images/05051433734813247700.jpg&lt;/a&gt; &lt;a href=&quot;\nhttp://imgchicken.com/images/08371461020487935628.jpg&quot; rel=&quot;nofollow&quot; target=&quot;_NEW&quot;&gt;\nhttp://imgchicken.com/images/08371461020487935628.jpg&lt;/a&gt;\n","torrent":{"xt":"urn:btih:b66b607ba92ca15822c106d1cc326fb90df07a8f","amp;dn":"The+Inbetweeners+2+2014+HDRip+x-264-KingStoner","amp;tr":["udp%3A%2F%2Ftracker.openbittorrent.com%3A80","udp%3A%2F%2Fopen.demonii.com%3A1337","udp%3A%2F%2Ftracker.coppersurfer.tk%3A6969","udp%3A%2F%2Fexodus.desync.com%3A6969"],"infoHash":"b66b607ba92ca15822c106d1cc326fb90df07a8f","infoHashBuffer":{"type":"Buffer","data":[182,107,96,123,169,44,161,88,34,193,6,209,204,50,111,185,13,240,122,143]},"announce":[],"urlList":[]}}